<?xml version="1.0" encoding="UTF-8"?>
<svg width="128" height="128" viewBox="0 0 245 240" fill="none" xmlns="http://www.w3.org/2000/svg" role="img" aria-label="Discord logo">
	<defs>
		<linearGradient id="grad" x1="0" y1="0" x2="1" y2="1">
			<stop offset="0%" stop-color="#5865F2"/>
			<stop offset="100%" stop-color="#7289DA"/>
		</linearGradient>
	</defs>
	<path d="M104.4 103.9c-5.7 0-10.2 5-10.2 11.1 0 6.1 4.6 11.1 10.2 11.1 5.7 0 10.2-5 10.2-11.1.1-6.1-4.5-11.1-10.2-11.1zm36.2 0c-5.7 0-10.2 5-10.2 11.1 0 6.1 4.6 11.1 10.2 11.1 5.7 0 10.2-5 10.2-11.1 0-6.1-4.5-11.1-10.2-11.1z" fill="#fff"/>
	<path d="M189.5 20h-134C38.8 20 25 33.8 25 50.5v126.9C25 194.2 38.8 208 55.5 208h114.9l-5.4-18.8 13 12.1 12.3 11.5 21.9 20V50.5C212.2 33.8 198.4 20 181.7 20h7.8zM163 148s-4.5-5.3-8.2-10c16.2-4.6 22.3-14.7 22.3-14.7-5.1 3.3-10 5.6-14.4 7.2-6.3 2.6-12.4 4.3-18.3 5.3-12.1 2.3-23.2 1.7-32.7-.1-7.2-1.4-13.4-3.3-18.5-5.3-2.9-1.1-6.1-2.4-9.3-4.1-.4-.2-.8-.4-1.2-.6-.3-.2-.5-.3-.7-.4-.3-.2-.5-.3-.5-.3s5.9 10 21.5 14.6c-3.7 4.7-8.3 10.2-8.3 10.2-27.4-.9-37.8-18.9-37.8-18.9 0-40.1 17.9-72.6 17.9-72.6 17.9-13.4 35-13 35-13l1.2 1.5C80.6 55.8 69 67 69 67s3-1.6 8-3.8c14.5-6.3 26-8 30.7-8.5.8-.1 1.5-.2 2.3-.2 8.2-1.1 17.5-1.4 27.2-.3 12.8 1.5 26.5 5.4 40.5 13.3 0 0-10.7-10.2-33.9-17.3l1.7-1.9s17.1-.4 35 13c0 0 17.9 32.4 17.9 72.6 0-.1-10.5 18-38 18.1z" fill="url(#grad)"/>
</svg>